<?xml version="1.0" encoding="UTF-8"?>
<!-- Generator: Adobe Illustrator 22.1.0, SVG Export Plug-In . SVG Version: 6.00 Build 0)  -->
<svg version="1.1" id="Layer_1" xmlns="http://www.w3.org/2000/svg" xmlns:xlink="http://www.w3.org/1999/xlink" x="0px" y="0px" viewBox="0 0 1300 550" style="enable-background:new 0 0 1300 550;" xml:space="preserve">
<g>
	<g>
		<defs>
			<rect id="SVGID_1_" width="1300" height="550"/>
		</defs>
		<clipPath id="SVGID_2_">
			<use xlink:href="#SVGID_1_" style="overflow:visible;"/>
		</clipPath>
		<g style="clip-path:url(#SVGID_2_);">
			<rect x="462.5" y="87.5" style="fill:#EB0A1E;" width="375" height="375"/>
			<path style="fill:#FFFFFF;" d="M650,189.87c-70.805,0-125,36.513-125,85.13c0,47.016,52.812,85.13,125,85.13     c72.188,0,125-38.114,125-85.13C775,226.383,720.805,189.87,650,189.87z M727.941,226.383     c2.605,10.495-9.62,23.611-48.952,27.901c-2.62-26.729-10.544-49.308-23.684-54.09c17.687,0.498,34.453,3.489,49.07,8.792     C718.044,214.144,726.536,220.723,727.941,226.383z M669.68,274.589c0,33.865-10.17,47.902-19.68,47.902     c-9.509,0-19.68-14.037-19.68-47.902c0-0.118,0.001-0.235,0.002-0.353c6.319,0.535,12.897,0.814,19.678,0.814     c6.781,0,13.359-0.279,19.678-0.815C669.678,274.354,669.68,274.471,669.68,274.589z M649.994,255.714     c-6.633,0-12.768-0.189-18.439-0.539c2.988-22.144,10.923-35.019,18.446-35.019s15.457,12.875,18.445,35.018     C662.77,255.524,656.632,255.714,649.994,255.714z M572.047,226.383c1.398-5.631,9.81-12.173,23.358-17.319     c14.668-5.353,31.515-8.37,49.291-8.871c-13.141,4.782-21.064,27.362-23.684,54.092     C581.669,249.997,569.442,236.879,572.047,226.383z M543.434,271.934c0-14.337,4.801-26.726,13.155-36.985     c1.082,19.008,26.794,33.185,63.458,38.161c-0.003,0.493-0.006,0.986-0.006,1.479c0,45.862,11.758,70.176,24.791,75.198     C588.863,347.775,543.434,313.302,543.434,271.934z M654.939,349.793c13.124-5.24,25.021-31.327,25.021-75.204     c0-0.493-0.003-0.986-0.006-1.479c36.664-4.976,62.375-19.153,63.458-38.161c8.353,10.259,13.154,22.648,13.154,36.985     C756.566,313.358,711.013,347.867,654.939,349.793z"/>
		</g>
	</g>
</g>
</svg>