<?xml version="1.0" encoding="UTF-8"?>
<!-- Generator: Adobe Illustrator 17.1.0, SVG Export Plug-In . SVG Version: 6.00 Build 0)  -->
<!DOCTYPE svg PUBLIC "-//W3C//DTD SVG 1.1//EN" "http://www.w3.org/Graphics/SVG/1.1/DTD/svg11.dtd">
<svg version="1.1" id="Nissan_Logo" xmlns="http://www.w3.org/2000/svg" xmlns:xlink="http://www.w3.org/1999/xlink" x="0px" y="0px" viewBox="0 0 210 181" enable-background="new 0 0 210 181" xml:space="preserve">
<title>Nissan Logo</title>
<desc>Für mehr Informationen siehe: http://de.wikipedia.org/wiki/Datei:Nissan_Logo.svg</desc>
<linearGradient id="SVGID_1_" gradientUnits="userSpaceOnUse" x1="302.6001" y1="492.3877" x2="302.5999" y2="631.7885" gradientTransform="matrix(1 0 0 1 -197.6 -484.99)">
	<stop offset="0.1944" style="stop-color:#FFFFFF"/>
	<stop offset="0.2085" style="stop-color:#F8F8F8"/>
	<stop offset="0.3657" style="stop-color:#AEAEAE"/>
	<stop offset="0.5133" style="stop-color:#707070"/>
	<stop offset="0.6468" style="stop-color:#404040"/>
	<stop offset="0.7637" style="stop-color:#1D1D1D"/>
	<stop offset="0.8595" style="stop-color:#080808"/>
	<stop offset="0.9222" style="stop-color:#000000"/>
</linearGradient>
<path fill="url(#SVGID_1_)" d="M198.1,69.8c-1.8-0.5-3.9-0.8-8.2-1.3C171.9,67.7,127.6,66,105,66s-66.9,1.7-84.9,2.5  c-4.3,0.5-6.4,0.8-8.2,1.3C6.2,71.1,5,73.1,5,77.2v27.7c0,4,4.3,6.8,7.3,7.3c3,0.6,4.9,0.8,8,1.1c16,1,53.3,3.1,84.7,3.1  c31.4,0,68.6-2.1,84.7-3.1c3.1-0.3,5-0.5,8-1.1c3-0.5,7.3-3.3,7.3-7.3V77.2C205,73.1,203.8,71.1,198.1,69.8z"/>
<radialGradient id="SVGID_2_" cx="246.4561" cy="455.4331" r="139.4622" gradientTransform="matrix(1 0 0 1 -197.6 -484.99)" gradientUnits="userSpaceOnUse">
	<stop offset="0.2022" style="stop-color:#FFFFFF"/>
	<stop offset="0.3822" style="stop-color:#FDFDFD"/>
	<stop offset="0.4874" style="stop-color:#F4F4F4"/>
	<stop offset="0.5732" style="stop-color:#E6E6E6"/>
	<stop offset="0.6483" style="stop-color:#D2D2D2"/>
	<stop offset="0.6889" style="stop-color:#C4C4C4"/>
	<stop offset="1" style="stop-color:#333333"/>
</radialGradient>
<path fill="url(#SVGID_2_)" d="M33,70.9c8.8-30.7,37.8-53.2,72.3-53.2c34.3,0,63.3,22.4,72.2,53c0,0.1,0,0.2,0.1,0.3  c5.1-0.6,9.7-1.5,12.9-2.3c-0.1-0.2-0.1-0.2-0.1-0.4C180.3,31.7,146,4.9,105.3,4.9c-40.8,0-75.2,27-85.2,63.6  C24.6,69.7,27.9,70.2,33,70.9z"/>
<radialGradient id="SVGID_3_" cx="583.9678" cy="678.8145" r="290.4512" gradientTransform="matrix(1 0 0 1 -197.6 -484.99)" gradientUnits="userSpaceOnUse">
	<stop offset="0.2022" style="stop-color:#FFFFFF"/>
	<stop offset="0.368" style="stop-color:#E4E4E4"/>
	<stop offset="0.5944" style="stop-color:#C4C4C4"/>
	<stop offset="1" style="stop-color:#333333"/>
</radialGradient>
<path fill="url(#SVGID_3_)" d="M177.3,111.1c-0.1,0.3-0.2,0.6-0.2,0.7c-9.4,29.9-38,51.6-71.8,51.6c-34.1,0-62.8-22-72-52.3  c-5.6,1-7.5,1.4-13,2.1c10.3,36.3,44.4,62.9,85,62.9c40.6,0,74.8-26.7,85-63C185.4,112.6,182.6,112.1,177.3,111.1z"/>
<radialGradient id="SVGID_4_" cx="279.9551" cy="614.7188" r="89.1694" gradientTransform="matrix(1 0 0 1 -197.6 -484.99)" gradientUnits="userSpaceOnUse">
	<stop offset="0.2022" style="stop-color:#FFFFFF"/>
	<stop offset="0.368" style="stop-color:#E4E4E4"/>
	<stop offset="0.5944" style="stop-color:#C4C4C4"/>
	<stop offset="1" style="stop-color:#333333"/>
</radialGradient>
<path fill="url(#SVGID_4_)" d="M34.9,70.8c2.1-0.9,4.2-2.3,7.4-3.2c9.6-24.8,34.2-42.5,63.1-42.5c28.8,0,53.4,17.6,63,42.3  c0,0.1,0.1,0.2,0.1,0.2c1.7,0.6,6.5,2.5,8,3.2c0.2,0,0.7,0,1.1,0c0-0.1-0.1-0.2-0.1-0.3c-8.9-30.6-37.9-53-72.2-53  c-34.4,0-63.4,22.5-72.3,53.2C33.6,70.9,34.5,70.8,34.9,70.8z"/>
<path fill="#FFFFFF" d="M104.8,19.7c32.2,0,60.8,19.2,71.6,50.9c0,0.1,0.1,0.2,0.1,0.3c0.2,0,0.8,0,1.1,0c0-0.1-0.1-0.2-0.1-0.3  c-8.9-30.6-37.9-53-72.2-53c-34.4,0-63.4,22.5-72.3,53.2c0.7,0,1,0,1.8-0.1C44.5,40.7,72.8,19.7,104.8,19.7z"/>
<radialGradient id="SVGID_5_" cx="351.9121" cy="705.8975" r="169.193" gradientTransform="matrix(1 0 0 1 -197.6 -484.99)" gradientUnits="userSpaceOnUse">
	<stop offset="0.2022" style="stop-color:#FFFFFF"/>
	<stop offset="0.368" style="stop-color:#E4E4E4"/>
	<stop offset="0.5944" style="stop-color:#C4C4C4"/>
	<stop offset="1" style="stop-color:#333333"/>
</radialGradient>
<path fill="url(#SVGID_5_)" d="M175.5,111.2c-2.3,1.3-5.2,2.5-7.5,3.3c0,0.1-0.2,0.4-0.2,0.5c-10,24-34.2,41-62.5,41  c-28.5,0-52.8-17.2-62.7-41.4c-2.7-0.7-6.6-2.5-8.1-3.3c-0.6,0-0.9,0-1.2-0.1c9.2,30.2,37.9,52.3,72,52.3  c33.9,0,62.6-21.8,71.8-51.8c0-0.1,0.1-0.4,0.1-0.4C176.8,111.1,175.9,111.2,175.5,111.2z"/>
<radialGradient id="SVGID_6_" cx="301.2598" cy="507.5024" r="134.4516" gradientTransform="matrix(1 0 0 1 -197.6 -484.99)" gradientUnits="userSpaceOnUse">
	<stop offset="0.2022" style="stop-color:#FFFFFF"/>
	<stop offset="0.3966" style="stop-color:#FDFDFD"/>
	<stop offset="0.5101" style="stop-color:#F4F4F4"/>
	<stop offset="0.6029" style="stop-color:#E6E6E6"/>
	<stop offset="0.6839" style="stop-color:#D2D2D2"/>
	<stop offset="0.7278" style="stop-color:#C4C4C4"/>
	<stop offset="1" style="stop-color:#4D4D4D"/>
</radialGradient>
<path fill="url(#SVGID_6_)" d="M196.5,71.8c-4.8-0.6-8-0.5-19.6-0.9c-0.5,0-1.1,0-1.6-0.1c-21-0.7-52.5-1.7-70.3-1.7  c-17.8,0-49.4,1-70.3,1.7c-0.5,0-1.1,0-1.6,0.1c-11.6,0.4-14.8,0.3-19.6,0.9C8.7,72.4,5,74.4,5,78v25.7c0,3.5,4.5,6.4,8.5,6.4  c0,0,50.7,3.1,91.5,3.2c40.8,0,91.5-3.2,91.5-3.2c4,0,8.5-2.9,8.5-6.4V78C205,74.4,201.3,72.4,196.5,71.8z"/>
<path fill="#FFFFFF" d="M175.5,111.2c-10,29.5-38,50.1-69.6,50.1c-32,0-60.3-18.9-71.3-50.1c-0.4,0-0.8,0-1.2-0.1  c9.2,30.2,37.9,52.3,72,52.3c34.1,0,62.8-22.1,72-52.3C176.7,111.1,176.1,111.2,175.5,111.2z"/>
<path fill="#8C8C8C" d="M175.5,111.2C175.5,111.2,175.5,111.2,175.5,111.2c-2.4,1.3-5.3,2.5-7.6,3.3c0,0.1-0.2,0.4-0.2,0.5  c-3.2,7.6-7.7,14.5-13.4,20.4C163.3,128.8,170.5,120.6,175.5,111.2z"/>
<path fill="#4D4D4D" d="M58.2,137.2c-6.7-6.4-12-14.1-15.5-22.7c-2.7-0.7-6.6-2.5-8.1-3.3c1.6,3.4,3.5,6.5,5.6,9.5  c4.4,5.7,9.8,10.9,15.8,15.2C56.7,136.3,57.5,136.8,58.2,137.2z"/>
<path fill="#252525" d="M33.3,111.1C33.3,111.1,33.3,111.1,33.3,111.1L33.3,111.1c-5.6,1-7.5,1.4-13,2.1c0.4,1.6,0.9,3.1,1.5,4.7  L33.3,111.1z"/>
<radialGradient id="NISSAN_1_" cx="304.375" cy="520.9683" r="90.5596" gradientTransform="matrix(1 0 0 1 -197.6 -484.99)" gradientUnits="userSpaceOnUse">
	<stop offset="0.1111" style="stop-color:#4D4D4D"/>
	<stop offset="0.248" style="stop-color:#494949"/>
	<stop offset="0.3546" style="stop-color:#404040"/>
	<stop offset="0.451" style="stop-color:#2F2F2F"/>
	<stop offset="0.5409" style="stop-color:#181818"/>
	<stop offset="0.6111" style="stop-color:#000000"/>
</radialGradient>
<path id="NISSAN" fill="url(#NISSAN_1_)" d="M145.6,83.1c-1.7-3.7-1.1-3.3-4.7-3.4c-0.3-0.1-1.1-0.1-2.2-0.1s-1.3,0-2.2,0.1  c-3.4,0-2.8-0.2-4,2.3c0,0-5.9,13.2-8.4,18.7l-0.1,0.2c-0.5,1-0.2,1,0.6,1h5.3c0.4,0,0.6-0.2,0.7-0.4c0,0,0.8-1.7,1.8-4h12.9  c1,2.3,1.7,3.9,1.7,4c0.1,0.3,0.4,0.4,0.7,0.4h5.5c0.8,0,1,0.1,0.7-0.6C152.9,98.9,146.5,85.2,145.6,83.1L145.6,83.1z M134.4,92.8  c1.7-3.9,3.3-7.7,3.3-7.8c0.1-0.2,0.3-0.3,0.6-0.3c0.1-0.1,0.4-0.1,0.7-0.1c0.2,0,0.5,0,0.6,0.1c0.2,0,0.4,0.1,0.5,0.4  c0.4,1.1,1.9,4.4,3.2,7.7H134.4L134.4,92.8z M63.7,79.4c0.5,0,0.6,0.2,0.6,0.6v21c0,0.5-0.1,0.7-0.7,0.7h-5.1  c-0.6,0-0.7-0.1-0.7-0.7V80c0-0.4,0.1-0.6,0.5-0.6H63.7L63.7,79.4z M52.8,79.6c0.6,0,0.7,0.2,0.7,0.7v20.9c0,0.6-0.1,0.7-0.7,0.7h-6  c-3.5,0-3.8,0-5-2C39.4,96.1,32,84.8,32,84.8v16.4c0,0.6-0.1,0.7-0.7,0.7h-4.4c-0.6,0-0.7-0.1-0.7-0.7V80.3c0-0.5,0.1-0.7,0.7-0.7  c0,0,1.2,0,5.1,0c3.8,0,4.3-0.1,5.7,1.9c1.1,1.8,10,15.5,10,15.5V80.3c0-0.5,0.1-0.7,0.7-0.7L52.8,79.6L52.8,79.6z M183.8,79.6  c0.6,0,0.7,0.2,0.7,0.7v20.9c0,0.6-0.1,0.7-0.7,0.7h-6c-3.5,0-3.8,0-5-2c-2.5-3.8-9.8-15.1-9.8-15.1v16.4c0,0.6-0.1,0.7-0.7,0.7  h-4.4c-0.6,0-0.7-0.1-0.7-0.7V80.3c0-0.5,0.1-0.7,0.7-0.7c0,0,1.2,0,5.1,0c3.8,0,4.3-0.1,5.7,1.9c1.2,1.8,10,15.5,10,15.5V80.3  c0-0.5,0.1-0.7,0.7-0.7L183.8,79.6L183.8,79.6z M86.2,88.1c3.9,0.4,6.8,1.1,7.6,4.8c0,0.3,0.1,1.3,0.1,2.4c0,0.7,0,1.6-0.2,2.4  c-0.7,3.5-3.3,4.2-7.5,4.2H69.7c-0.6,0-0.7-0.1-0.7-0.7v-3.5c0-0.6,0.1-0.7,0.7-0.7c0,0,16.4,0,16.7,0c0.7,0,0.9-0.2,1-0.7  c0-0.4,0-0.6,0-0.9s0-0.5,0-0.6c-0.1-0.4-0.2-1-1.1-1.1c-1.9-0.1-7.4-0.6-11.1-1c-4.8-0.5-6-2.5-6.2-4.3c-0.1-0.6-0.1-1.4-0.1-2.1  c0-0.6,0-1.5,0.1-2.2c0.7-3.1,3-4.6,7.2-4.6h16c0.6,0,0.8,0.1,0.8,0.6v3.6c0,0.5-0.2,0.7-0.8,0.6c0,0-15.3,0-15.7,0  c-0.7,0-1,0.3-1.1,1c0,0.1,0,0.2,0,0.4s0,0.3,0,0.5c0,0.5,0.3,0.9,1,1C78.2,87.5,84,87.9,86.2,88.1L86.2,88.1z M114.5,88.1  c3.9,0.4,6.8,1.1,7.6,4.8c0,0.3,0.1,1.3,0.1,2.4c0,0.7,0,1.6-0.2,2.4c-0.7,3.5-3.3,4.2-7.5,4.2H98.1c-0.6,0-0.7-0.1-0.7-0.7v-3.5  c0-0.6,0.1-0.7,0.7-0.7c0,0,16.4,0,16.7,0c0.7,0,0.9-0.2,1-0.7c0-0.4,0-0.6,0-0.9s0-0.5,0-0.6c-0.1-0.4-0.3-1-1.1-1.1  c-1.9-0.1-7.4-0.6-11.1-1c-4.8-0.5-5.9-2.5-6.2-4.3c-0.1-0.6-0.1-1.4-0.1-2.1c0-0.6,0-1.5,0.1-2.2c0.7-3.1,3-4.6,7.2-4.6h16  c0.6,0,0.8,0.1,0.8,0.6v3.6c0,0.5-0.2,0.7-0.8,0.6c0,0-15.3,0-15.7,0c-0.7,0-1,0.3-1.1,1c0,0.1,0,0.2,0,0.4s0,0.3,0,0.5  c0,0.5,0.2,0.9,1,1C106.6,87.5,112.4,87.9,114.5,88.1L114.5,88.1z"/>
</svg>